<svg xmlns="http://www.w3.org/2000/svg" viewBox="0 0 359.62 79.4"><defs><style>.cls-1{fill:#fe6a00;}</style></defs><title>资源 1</title><g id="图层_2" data-name="图层 2"><g id="图层_1-2" data-name="图层 1"><rect class="cls-1" x="42.46" y="34.71" width="42.42" height="9.57"/><path class="cls-1" d="M106.13,0H78.06l6.78,9.59,20.46,6.27a8.84,8.84,0,0,1,6.18,8.49v30.7a8.84,8.84,0,0,1-6.18,8.49L84.84,69.81,78.06,79.4h28.07a21.21,21.21,0,0,0,21.21-21.2v-37A21.21,21.21,0,0,0,106.13,0Z"/><path class="cls-1" d="M21.2,0H49.27L42.5,9.59,22,15.86a8.85,8.85,0,0,0-6.18,8.49v30.7A8.85,8.85,0,0,0,22,63.54L42.5,69.81l6.77,9.59H21.2A21.2,21.2,0,0,1,0,58.2v-37A21.2,21.2,0,0,1,21.2,0Z"/><path class="cls-1" d="M197.4,19H176.68V61.33H197.4Zm-8.2,34.12h-4.31V27.21h4.31Z"/><path class="cls-1" d="M146.47,77.29h8.2v-67h8.42L158,32.68v8.2h5.07V58.76a2.21,2.21,0,0,1-2.21,2.12H159v8.2h4.1a8.21,8.21,0,0,0,8.2-8.21V32.68h-5.06l5.06-22.37V2.11H146.47Z"/><path class="cls-1" d="M174.64,10.31h28.15v52A6.79,6.79,0,0,1,196,69.11h-6.25v8.18h8.4A12.8,12.8,0,0,0,211,64.48V10.31h3V2.11H174.64Z"/><rect class="cls-1" x="298.29" y="2.83" width="58.3" height="8.2"/><path class="cls-1" d="M359.62,40.88v-8.2H295.26v8.2h16.26l-12.8,28.21h0v8.2H353.6a4.1,4.1,0,0,0,4.11-4.1,4.34,4.34,0,0,0-.42-1.76l-6.94-15.22h-9l5.9,12.88H307.73l12.8-28.21Z"/><path class="cls-1" d="M258.73,69.09v-8.7h26v-8.2h-26V44.11h25v-42h-58.3v42h25.05v8.08h-26v8.2h26v8.7H222.45v8.2h64.36v-8.2Zm0-33.18v-8.7h16.85v8.7Zm16.85-25.6V19H258.73v-8.7Zm-25,0V19H233.68v-8.7Zm-16.85,25.6v-8.7h16.85v8.7Z"/></g></g></svg>